<svg xmlns="http://www.w3.org/2000/svg" viewBox="0 0 52.9 26.1"><path class="st4" d="M27.8 99.7l-2.4-4.1-5.9-10.2-5.9 10.2-5.9 10.2h16.5l3.6-6.1"/><path class="st4" d="M34.8 99.7l-3.5-6.1-3.5 6.1 3.5 6.1h7"/><path class="st4" d="M5.6 82h35.5v24.1H5.6z"/><circle class="st5" cx="35.2" cy="87.5" r="2.1"/><path class="st4" d="M51.4 88.7l5.2 5.5-5.2 5.3"/><path class="st6" d="M1297.3 67.3h1025v2494h-1025z"/><path class="st4" d="M1327 82h35.5v24.1H1327zm4 5.4h23.8m-23.8 4.4h27.2m-27.2 4.4h20.2m-20.2 4.4h27.2m-41.3-1.1l-5.2-5.5 5.2-5.3"/><path class="st5" d="M19.6 25.9H3.1c-.4 0-.7-.2-.9-.5s-.2-.7 0-1L14 4c.4-.6 1.4-.6 1.7 0L24 18.3c.2.3.2.7 0 1l-3.5 6.1c-.2.3-.5.5-.9.5zm-14.8-2H19l2.9-5.1-7-12.3L4.8 23.9z"/><path class="st5" d="M33.7 25.9h-7c-.4 0-.7-.2-.9-.5l-3.5-6.1c-.2-.3-.2-.7 0-1l3.5-6.1c.2-.3.5-.5.9-.5s.7.2.9.5l7 12.2c.2.3.2.7 0 1s-.6.5-.9.5zm-6.5-2H32l-5.3-9.2-2.4 4.1 2.9 5.1z"/><path class="st5" d="M36.5 26.1H1c-.6 0-1-.4-1-1V1c0-.6.4-1 1-1h35.5c.6 0 1 .4 1 1v24.1c0 .5-.5 1-1 1zM2 24.1h33.5V2H2v22.1z"/><circle class="st5" cx="30.6" cy="6.6" r="2.1"/><path class="st5" d="M47.5 19.2L46 17.8l4.5-4.6L46 8.4 47.5 7l5.2 5.5c.4.4.4 1 0 1.4l-5.2 5.3z"/></svg>
